<svg xmlns="http://www.w3.org/2000/svg">
  <symbol id="icon-logo" viewBox="0 0 18 22" fill="none"
    xmlns="http://www.w3.org/2000/svg">
    <path fill-rule="evenodd" clip-rule="evenodd"
      d="M1.61967 0.0527838C1.2459 0.133671 0.940376 0.306712 0.634031 0.610909C0.321235 0.921514 0.153771 1.21819 0.0701915 1.60981C-0.0243015 2.05269 -0.022959 19.3872 0.0716206 19.8305C0.23891 20.6147 0.806821 21.3433 1.52522 21.6954C2.202 22.0271 1.62751 22.0069 10.0492 21.9945C17.5814 21.9834 17.5823 21.9834 17.7018 21.8947C17.7676 21.8459 17.8616 21.7526 17.9107 21.6873L18 21.5685V12.3724V3.17625L17.9107 3.05748C17.8616 2.99216 17.7677 2.89884 17.7019 2.85008C17.5893 2.76648 17.5157 2.76067 16.4183 2.74868L15.254 2.73599L15.2413 1.57992C15.2292 0.490159 15.2233 0.417098 15.1391 0.30525C15.09 0.239972 14.9961 0.146701 14.9303 0.0979361C14.8108 0.0093946 14.8018 0.00926559 8.3505 0.00174021C3.03793 -0.00449511 1.84222 0.00457835 1.61967 0.0527838ZM13.8643 2.05187V2.7399H7.90839C1.39855 2.7399 1.78207 2.75521 1.55436 2.48649C1.26807 2.14858 1.39574 1.59983 1.80151 1.42434C1.90917 1.37777 3.03711 1.36689 7.89895 1.36551L13.8643 1.36383V2.05187ZM9.59593 5.55672C10.6273 5.77367 11.502 6.64231 11.7205 7.66641C12.1348 9.60826 10.3878 11.343 8.43222 10.9316C7.64267 10.7656 6.90881 10.2016 6.55435 9.4885C6.14096 8.65683 6.14096 7.83153 6.55435 6.99987C7.09979 5.90259 8.3715 5.29918 9.59593 5.55672ZM11.2417 12.4729C12.5361 12.8487 13.4114 13.7251 13.7664 15.0007C13.8299 15.2292 13.8427 15.4561 13.8427 16.3576C13.8427 17.3839 13.838 17.4464 13.7534 17.559C13.7042 17.6244 13.6103 17.7177 13.5445 17.7665C13.4255 17.8547 13.4014 17.8552 9.01407 17.8552C4.62673 17.8552 4.60261 17.8547 4.48365 17.7665C4.19246 17.5506 4.18687 17.5284 4.17133 16.5298C4.15595 15.5425 4.19359 15.1766 4.36066 14.6888C4.68173 13.7514 5.53329 12.8911 6.44145 12.5865C7.04479 12.3842 7.15383 12.3761 9.12234 12.3875C10.7413 12.3968 11.0181 12.408 11.2417 12.4729Z"
      fill="currentColor" />
  </symbol>
  <symbol id="icon-add" viewBox="0 0 12 12" fill="none" xmlns="http://www.w3.org/2000/svg">
    <path d="M11.25 6.75H6.75V11.25H5.25V6.75H0.75V5.25H5.25V0.75H6.75V5.25H11.25V6.75Z"
      fill="white" />
  </symbol>
  <symbol id="icon-close" viewBox="0 0 14 14" fill="none" xmlns="http://www.w3.org/2000/svg">
    <path opacity="0.3"
      d="M14 1.41L12.59 0L7 5.59L1.41 0L0 1.41L5.59 7L0 12.59L1.41 14L7 8.41L12.59 14L14 12.59L8.41 7L14 1.41Z"
      fill="black" />
  </symbol>
  <symbol id="icon-arrow" viewBox="0 0 13 8" fill="none" xmlns="http://www.w3.org/2000/svg">
    <path
      d="M10.8849 0.294983L6.29492 4.87498L1.70492 0.294983L0.294922 1.70498L6.29492 7.70498L12.2949 1.70498L10.8849 0.294983Z"
      fill="currentColor" />
  </symbol>
  <symbol id="icon-check" viewBox="0 0 14 14" fill="none" xmlns="http://www.w3.org/2000/svg">
    <path
      d="M7 0C3.13438 0 0 3.13438 0 7C0 10.8656 3.13438 14 7 14C10.8656 14 14 10.8656 14 7C14 3.13438 10.8656 0 7 0ZM10.0234 4.71406L6.73281 9.27656C6.68682 9.34076 6.62619 9.39306 6.55595 9.42914C6.48571 9.46523 6.40787 9.48405 6.32891 9.48405C6.24994 9.48405 6.17211 9.46523 6.10186 9.42914C6.03162 9.39306 5.97099 9.34076 5.925 9.27656L3.97656 6.57656C3.91719 6.49375 3.97656 6.37813 4.07812 6.37813H4.81094C4.97031 6.37813 5.12187 6.45469 5.21562 6.58594L6.32812 8.12969L8.78438 4.72344C8.87813 4.59375 9.02812 4.51562 9.18906 4.51562H9.92188C10.0234 4.51562 10.0828 4.63125 10.0234 4.71406Z"
      fill="#52C41A" />
  </symbol>
</svg>